{
  "accessors": [
    {
      "bufferView": 2,
      "componentType": 5126,
      "count": 2896,
      "max": [
        1989.8416748046875,
        1857.93701171875,
        2285.32275390625
      ],
      "min": [
        -2122.2841796875,
        -1857.93701171875,
        -2056.06298828125
      ],
      "type": "VEC3"
    },
    {
      "bufferView": 2,
      "byteOffset": 34752,
      "componentType": 5126,
      "count": 2896,
      "max": [
        0.9793051481246948,
        0.9999042749404907,
        0.997977077960968
      ],
      "min": [
        -0.9999350309371948,
        -0.9999042749404907,
        -0.9986927509307861
      ],
      "type": "VEC3"
    },
    {
      "bufferView": 1,
      "componentType": 5126,
      "count": 2896,
      "max": [
        1.0,
        1.0
      ],
      "min": [
        0.0,
        0.0
      ],
      "type": "VEC2"
    },
    {
      "bufferView": 0,
      "componentType": 5125,
      "count": 2970,
      "type": "SCALAR"
    }
  ],
  "asset": {
    "extras": {
      "author": "Kiyoiscool (https://sketchfab.com/Kiyoiscool)",
      "license": "CC-BY-4.0 (http://creativecommons.org/licenses/by/4.0/)",
      "source": "https://sketchfab.com/3d-models/majoras-mask-moon-c745e76c5e2c463fac46ef212fdc7664",
      "title": "Majora’s mask moon"
    },
    "generator": "Sketchfab-16.33.0",
    "version": "2.0"
  },
  "bufferViews": [
    {
      "buffer": 0,
      "byteLength": 11880,
      "name": "floatBufferViews",
      "target": 34963
    },
    {
      "buffer": 0,
      "byteLength": 23168,
      "byteOffset": 11880,
      "byteStride": 8,
      "name": "floatBufferViews",
      "target": 34962
    },
    {
      "buffer": 0,
      "byteLength": 69504,
      "byteOffset": 35048,
      "byteStride": 12,
      "name": "floatBufferViews",
      "target": 34962
    }
  ],
  "buffers": [
    {
      "byteLength": 104552,
      "uri": "scene.bin"
    }
  ],
  "images": [
    {
      "uri": "textures/material_02FDF718_baseColor.png"
    }
  ],
  "materials": [
    {
      "doubleSided": true,
      "emissiveTexture": {
        "index": 0
      },
      "name": "material_02FDF718",
      "pbrMetallicRoughness": {
        "baseColorTexture": {
          "index": 0
        },
        "metallicFactor": 0.0,
        "roughnessFactor": 0.9487850079593797
      }
    }
  ],
  "meshes": [
    {
      "name": "Object_0",
      "primitives": [
        {
          "attributes": {
            "NORMAL": 1,
            "POSITION": 0,
            "TEXCOORD_0": 2
          },
          "indices": 3,
          "material": 0,
          "mode": 4
        }
      ]
    }
  ],
  "nodes": [
    {
      "children": [
        1
      ],
      "matrix": [
        -0.01736482046544552,
        0.9998492002487183,
        2.2201112065383516e-16,
        0.0,
        0.0,
        2.220446049250313e-16,
        -1.0,
        0.0,
        -0.9998492002487183,
        -0.01736482046544552,
        -3.8557646998439484e-18,
        0.0,
        0.0,
        0.0,
        0.0,
        1.0
      ],
      "name": "Sketchfab_model"
    },
    {
      "children": [
        2
      ],
      "name": "moon.obj.cleaner.materialmerger.gles"
    },
    {
      "mesh": 0,
      "name": "Object_2"
    }
  ],
  "samplers": [
    {
      "magFilter": 9729,
      "minFilter": 9987,
      "wrapS": 10497,
      "wrapT": 10497
    }
  ],
  "scene": 0,
  "scenes": [
    {
      "name": "Sketchfab_Scene",
      "nodes": [
        0
      ]
    }
  ],
  "textures": [
    {
      "sampler": 0,
      "source": 0
    }
  ]
}
